<svg width="184" height="232" viewBox="0 0 184 232" fill="none" xmlns="http://www.w3.org/2000/svg">
<g filter="url(#filter0_dd_1_827)">
<circle cx="111.107" cy="203.897" r="12.2538" fill="url(#paint0_linear_1_827)" shape-rendering="crispEdges"/>
</g>
<g filter="url(#filter1_dd_1_827)">
<circle cx="148.477" cy="164.787" r="9.06551" fill="url(#paint1_linear_1_827)" shape-rendering="crispEdges"/>
</g>
<circle cx="92" cy="92" r="92" fill="url(#paint2_radial_1_827)" fill-opacity="0.6"/>
<g filter="url(#filter2_d_1_827)">
<ellipse cx="110.924" cy="112.638" rx="55.1219" ry="34.5323" fill="url(#paint3_linear_1_827)" fill-opacity="0.5" shape-rendering="crispEdges"/>
<path d="M110.924 78.3379C126.108 78.338 139.845 82.1946 149.777 88.417C159.713 94.6415 165.812 103.211 165.812 112.638C165.812 122.065 159.713 130.634 149.777 136.858C139.845 143.081 126.108 146.937 110.924 146.938C95.7391 146.938 82.0029 143.081 72.0703 136.858C62.1345 130.634 56.0342 122.065 56.0342 112.638C56.0342 103.211 62.1346 94.6415 72.0703 88.417C82.0029 82.1946 95.7391 78.3379 110.924 78.3379Z" stroke="url(#paint4_linear_1_827)" stroke-opacity="0.6" stroke-width="0.465527" shape-rendering="crispEdges"/>
</g>
<circle cx="110.923" cy="80.4379" r="69.9308" fill="url(#paint5_radial_1_827)"/>
<ellipse cx="110.923" cy="92.0002" rx="68.3691" ry="39.9973" fill="url(#paint6_linear_1_827)" fill-opacity="0.5"/>
<path d="M110.923 52.2354C129.769 52.2354 146.819 56.7052 159.149 63.9189C171.486 71.136 179.059 81.072 179.06 92C179.06 102.928 171.486 112.865 159.149 120.082C146.819 127.296 129.768 131.765 110.923 131.765C92.0773 131.765 75.0271 127.296 62.6963 120.082C50.3599 112.865 42.7861 102.928 42.7861 92C42.7862 81.072 50.3599 71.136 62.6963 63.9189C75.0271 56.7052 92.0772 52.2354 110.923 52.2354Z" stroke="url(#paint7_linear_1_827)" stroke-opacity="0.6" stroke-width="0.465527"/>
<circle cx="110.923" cy="80.4377" r="51.7992" fill="url(#paint8_radial_1_827)"/>
<circle cx="110.923" cy="80.4377" r="51.7992" fill="url(#paint9_radial_1_827)"/>
<g filter="url(#filter3_d_1_827)">
<ellipse cx="110.923" cy="67.1682" rx="67.6737" ry="39.0723" fill="url(#paint10_linear_1_827)" fill-opacity="0.5" shape-rendering="crispEdges"/>
<path d="M110.923 28.3283C129.577 28.3283 146.454 32.6946 158.66 39.7414C170.871 46.7918 178.364 56.4971 178.364 67.1682C178.364 77.8392 170.871 87.5445 158.66 94.5949C146.454 101.642 129.577 106.008 110.923 106.008C92.269 106.008 75.392 101.642 63.1868 94.5949C50.9755 87.5445 43.4818 77.8393 43.4818 67.1682C43.4818 56.497 50.9755 46.7918 63.1868 39.7414C75.392 32.6946 92.269 28.3283 110.923 28.3283Z" stroke="url(#paint11_linear_1_827)" stroke-opacity="0.6" stroke-width="0.465527" shape-rendering="crispEdges"/>
</g>
<g filter="url(#filter4_d_1_827)">
<ellipse cx="110.923" cy="46.9919" rx="52.5128" ry="33.9429" fill="url(#paint12_linear_1_827)" fill-opacity="0.5" shape-rendering="crispEdges"/>
<path d="M110.923 13.2814C125.386 13.2814 138.469 17.0711 147.929 23.1857C157.391 29.302 163.203 37.7247 163.203 46.9924C163.203 56.2598 157.391 64.6819 147.929 70.798C138.469 76.9127 125.386 80.7023 110.923 80.7023C96.4599 80.7023 83.3769 76.9127 73.9169 70.798C64.4546 64.6819 58.6427 56.2598 58.6425 46.9924C58.6425 37.7247 64.4545 29.302 73.9169 23.1857C83.3769 17.0711 96.4599 13.2815 110.923 13.2814Z" stroke="url(#paint13_linear_1_827)" stroke-opacity="0.6" stroke-width="0.465527" shape-rendering="crispEdges"/>
</g>
<ellipse cx="110.924" cy="35.2025" rx="32.6853" ry="22.1535" fill="url(#paint14_linear_1_827)" fill-opacity="0.5"/>
<path d="M110.924 13.2814C119.909 13.2815 128.034 15.7511 133.905 19.7307C139.778 23.711 143.376 29.1852 143.376 35.2023C143.376 41.2196 139.778 46.6945 133.905 50.675C128.034 54.6545 119.909 57.1232 110.924 57.1232C101.939 57.1232 93.8139 54.6545 87.9424 50.675C82.0697 46.6945 78.4707 41.2196 78.4707 35.2023C78.4708 29.1851 82.0697 23.7111 87.9424 19.7307C93.8139 15.7511 101.938 13.2814 110.924 13.2814Z" stroke="url(#paint15_linear_1_827)" stroke-opacity="0.6" stroke-width="0.465527"/>
<ellipse cx="110.923" cy="27.6398" rx="18.9232" ry="13.0204" fill="url(#paint16_linear_1_827)" fill-opacity="0.5"/>
<path d="M110.923 14.8519C116.107 14.8519 120.791 16.2982 124.172 18.6244C127.554 20.9513 129.613 24.1431 129.613 27.64C129.613 31.1368 127.554 34.3277 124.172 36.6546C120.791 38.9809 116.107 40.4271 110.923 40.4271C105.739 40.427 101.056 38.9808 97.675 36.6546C94.2931 34.3277 92.2327 31.1368 92.2326 27.64C92.2326 24.1431 94.2931 20.9513 97.675 18.6244C101.056 16.2983 105.739 14.852 110.923 14.8519Z" stroke="url(#paint17_linear_1_827)" stroke-opacity="0.6" stroke-width="0.465527"/>
<circle cx="110.923" cy="80.4378" r="69.9308" fill="url(#paint18_radial_1_827)" fill-opacity="0.3"/>
<defs>
<filter id="filter0_dd_1_827" x="82.5602" y="174.418" width="57.0946" height="57.0946" filterUnits="userSpaceOnUse" color-interpolation-filters="sRGB">
<feFlood flood-opacity="0" result="BackgroundImageFix"/>
<feColorMatrix in="SourceAlpha" type="matrix" values="0 0 0 0 0 0 0 0 0 0 0 0 0 0 0 0 0 0 127 0" result="hardAlpha"/>
<feOffset dy="-0.931053"/>
<feGaussianBlur stdDeviation="8.14672"/>
<feComposite in2="hardAlpha" operator="out"/>
<feColorMatrix type="matrix" values="0 0 0 0 0.371081 0 0 0 0 0.235903 0 0 0 0 0.658333 0 0 0 1 0"/>
<feBlend mode="normal" in2="BackgroundImageFix" result="effect1_dropShadow_1_827"/>
<feColorMatrix in="SourceAlpha" type="matrix" values="0 0 0 0 0 0 0 0 0 0 0 0 0 0 0 0 0 0 127 0" result="hardAlpha"/>
<feOffset dy="-0.931053"/>
<feGaussianBlur stdDeviation="4.65527"/>
<feComposite in2="hardAlpha" operator="out"/>
<feColorMatrix type="matrix" values="0 0 0 0 0.48825 0 0 0 0 0.372778 0 0 0 0 0.733333 0 0 0 1 0"/>
<feBlend mode="normal" in2="effect1_dropShadow_1_827" result="effect2_dropShadow_1_827"/>
<feBlend mode="normal" in="SourceGraphic" in2="effect2_dropShadow_1_827" result="shape"/>
</filter>
<filter id="filter1_dd_1_827" x="123.118" y="138.497" width="50.7179" height="50.7179" filterUnits="userSpaceOnUse" color-interpolation-filters="sRGB">
<feFlood flood-opacity="0" result="BackgroundImageFix"/>
<feColorMatrix in="SourceAlpha" type="matrix" values="0 0 0 0 0 0 0 0 0 0 0 0 0 0 0 0 0 0 127 0" result="hardAlpha"/>
<feOffset dy="-0.931053"/>
<feGaussianBlur stdDeviation="8.14672"/>
<feComposite in2="hardAlpha" operator="out"/>
<feColorMatrix type="matrix" values="0 0 0 0 0.371081 0 0 0 0 0.235903 0 0 0 0 0.658333 0 0 0 1 0"/>
<feBlend mode="normal" in2="BackgroundImageFix" result="effect1_dropShadow_1_827"/>
<feColorMatrix in="SourceAlpha" type="matrix" values="0 0 0 0 0 0 0 0 0 0 0 0 0 0 0 0 0 0 127 0" result="hardAlpha"/>
<feOffset dy="-0.931053"/>
<feGaussianBlur stdDeviation="4.65527"/>
<feComposite in2="hardAlpha" operator="out"/>
<feColorMatrix type="matrix" values="0 0 0 0 0.48825 0 0 0 0 0.372778 0 0 0 0 0.733333 0 0 0 1 0"/>
<feBlend mode="normal" in2="effect1_dropShadow_1_827" result="effect2_dropShadow_1_827"/>
<feBlend mode="normal" in="SourceGraphic" in2="effect2_dropShadow_1_827" result="shape"/>
</filter>
<filter id="filter2_d_1_827" x="51.1465" y="73.9158" width="119.554" height="78.3752" filterUnits="userSpaceOnUse" color-interpolation-filters="sRGB">
<feFlood flood-opacity="0" result="BackgroundImageFix"/>
<feColorMatrix in="SourceAlpha" type="matrix" values="0 0 0 0 0 0 0 0 0 0 0 0 0 0 0 0 0 0 127 0" result="hardAlpha"/>
<feOffset dy="0.465527"/>
<feGaussianBlur stdDeviation="2.32763"/>
<feComposite in2="hardAlpha" operator="out"/>
<feColorMatrix type="matrix" values="0 0 0 0 0.440043 0 0 0 0 0.20092 0 0 0 0 0.679167 0 0 0 0.3 0"/>
<feBlend mode="normal" in2="BackgroundImageFix" result="effect1_dropShadow_1_827"/>
<feBlend mode="normal" in="SourceGraphic" in2="effect1_dropShadow_1_827" result="shape"/>
</filter>
<filter id="filter3_d_1_827" x="40.9217" y="26.2338" width="140.003" height="82.7998" filterUnits="userSpaceOnUse" color-interpolation-filters="sRGB">
<feFlood flood-opacity="0" result="BackgroundImageFix"/>
<feColorMatrix in="SourceAlpha" type="matrix" values="0 0 0 0 0 0 0 0 0 0 0 0 0 0 0 0 0 0 127 0" result="hardAlpha"/>
<feOffset dy="0.465527"/>
<feGaussianBlur stdDeviation="1.16382"/>
<feComposite in2="hardAlpha" operator="out"/>
<feColorMatrix type="matrix" values="0 0 0 0 0.369333 0 0 0 0 0.0916667 0 0 0 0 0.5 0 0 0 0.15 0"/>
<feBlend mode="normal" in2="BackgroundImageFix" result="effect1_dropShadow_1_827"/>
<feBlend mode="normal" in="SourceGraphic" in2="effect1_dropShadow_1_827" result="shape"/>
</filter>
<filter id="filter4_d_1_827" x="55.3841" y="10.0231" width="112.009" height="74.8687" filterUnits="userSpaceOnUse" color-interpolation-filters="sRGB">
<feFlood flood-opacity="0" result="BackgroundImageFix"/>
<feColorMatrix in="SourceAlpha" type="matrix" values="0 0 0 0 0 0 0 0 0 0 0 0 0 0 0 0 0 0 127 0" result="hardAlpha"/>
<feOffset dx="0.465527" dy="0.465527"/>
<feGaussianBlur stdDeviation="1.74573"/>
<feComposite in2="hardAlpha" operator="out"/>
<feColorMatrix type="matrix" values="0 0 0 0 0.440043 0 0 0 0 0.20092 0 0 0 0 0.679167 0 0 0 0.2 0"/>
<feBlend mode="normal" in2="BackgroundImageFix" result="effect1_dropShadow_1_827"/>
<feBlend mode="normal" in="SourceGraphic" in2="effect1_dropShadow_1_827" result="shape"/>
</filter>
<linearGradient id="paint0_linear_1_827" x1="111.107" y1="186.315" x2="111.107" y2="229.292" gradientUnits="userSpaceOnUse">
<stop stop-color="white"/>
<stop offset="0.223958" stop-color="#6BE4FF"/>
<stop offset="0.623188" stop-color="#371B73" stop-opacity="0.6"/>
<stop offset="1" stop-color="#0A1153" stop-opacity="0.4"/>
</linearGradient>
<linearGradient id="paint1_linear_1_827" x1="148.477" y1="151.779" x2="148.477" y2="183.574" gradientUnits="userSpaceOnUse">
<stop stop-color="white"/>
<stop offset="0.223958" stop-color="#6BE4FF"/>
<stop offset="0.623188" stop-color="#371B73" stop-opacity="0.6"/>
<stop offset="1" stop-color="#0A1153" stop-opacity="0.4"/>
</linearGradient>
<radialGradient id="paint2_radial_1_827" cx="0" cy="0" r="1" gradientUnits="userSpaceOnUse" gradientTransform="translate(92 92) rotate(90) scale(92)">
<stop stop-color="#FF65C1"/>
<stop offset="1" stop-color="#FF65C1" stop-opacity="0"/>
</radialGradient>
<linearGradient id="paint3_linear_1_827" x1="110.924" y1="78.1055" x2="110.924" y2="147.17" gradientUnits="userSpaceOnUse">
<stop stop-color="#13154D"/>
<stop offset="1" stop-color="#8E92EE" stop-opacity="0"/>
</linearGradient>
<linearGradient id="paint4_linear_1_827" x1="138.301" y1="116.992" x2="141.42" y2="151.829" gradientUnits="userSpaceOnUse">
<stop stop-color="white" stop-opacity="0"/>
<stop offset="1" stop-color="white"/>
</linearGradient>
<radialGradient id="paint5_radial_1_827" cx="0" cy="0" r="1" gradientUnits="userSpaceOnUse" gradientTransform="translate(40.9924 105.877) rotate(-19.6638) scale(148.523)">
<stop offset="0.249306" stop-color="white"/>
<stop offset="0.48315" stop-color="#FF8FED" stop-opacity="0.5"/>
<stop offset="0.627037" stop-color="#220C7A" stop-opacity="0.5"/>
</radialGradient>
<linearGradient id="paint6_linear_1_827" x1="48.133" y1="100.501" x2="177.718" y2="85.8744" gradientUnits="userSpaceOnUse">
<stop stop-color="white"/>
<stop offset="1" stop-color="#12178E" stop-opacity="0.4"/>
</linearGradient>
<linearGradient id="paint7_linear_1_827" x1="121.778" y1="148.949" x2="101.092" y2="99.5963" gradientUnits="userSpaceOnUse">
<stop offset="0.0011346" stop-color="white"/>
<stop offset="1" stop-color="white" stop-opacity="0"/>
</linearGradient>
<radialGradient id="paint8_radial_1_827" cx="0" cy="0" r="1" gradientUnits="userSpaceOnUse" gradientTransform="translate(71.7449 106.741) rotate(-14.8494) scale(102.636)">
<stop offset="0.239373" stop-color="white"/>
<stop offset="0.410099" stop-color="#FFCEF1"/>
<stop offset="0.67492" stop-color="#B6B9FF"/>
<stop offset="0.861176" stop-color="#FFA8E7"/>
<stop offset="1" stop-color="white"/>
</radialGradient>
<radialGradient id="paint9_radial_1_827" cx="0" cy="0" r="1" gradientUnits="userSpaceOnUse" gradientTransform="translate(159.997 120.476) rotate(-121.724) scale(59.0164)">
<stop stop-color="#3F52FF"/>
<stop offset="1" stop-color="#3F52FF" stop-opacity="0"/>
</radialGradient>
<linearGradient id="paint10_linear_1_827" x1="44.7066" y1="64.4752" x2="178.597" y2="68.6349" gradientUnits="userSpaceOnUse">
<stop stop-color="white"/>
<stop offset="1" stop-color="#5653FF" stop-opacity="0.2"/>
</linearGradient>
<linearGradient id="paint11_linear_1_827" x1="102.011" y1="133.827" x2="97.8039" y2="70.0925" gradientUnits="userSpaceOnUse">
<stop stop-color="white"/>
<stop offset="1" stop-color="white" stop-opacity="0"/>
</linearGradient>
<linearGradient id="paint12_linear_1_827" x1="110.923" y1="13.049" x2="110.923" y2="80.9348" gradientUnits="userSpaceOnUse">
<stop stop-color="#13154D" stop-opacity="0.5"/>
<stop offset="1" stop-color="#8E92EE" stop-opacity="0"/>
</linearGradient>
<linearGradient id="paint13_linear_1_827" x1="120.101" y1="95.6731" x2="127.066" y2="20.6059" gradientUnits="userSpaceOnUse">
<stop stop-color="white"/>
<stop offset="1" stop-color="white" stop-opacity="0"/>
</linearGradient>
<linearGradient id="paint14_linear_1_827" x1="110.924" y1="13.049" x2="110.924" y2="57.356" gradientUnits="userSpaceOnUse">
<stop stop-color="#13154D"/>
<stop offset="1" stop-color="#8E92EE" stop-opacity="0"/>
</linearGradient>
<linearGradient id="paint15_linear_1_827" x1="124.001" y1="89.9535" x2="110.924" y2="13.049" gradientUnits="userSpaceOnUse">
<stop stop-color="white"/>
<stop offset="1" stop-color="white" stop-opacity="0"/>
</linearGradient>
<linearGradient id="paint16_linear_1_827" x1="110.923" y1="14.6195" x2="110.923" y2="40.6602" gradientUnits="userSpaceOnUse">
<stop stop-color="#13154D"/>
<stop offset="1" stop-color="#8E92EE" stop-opacity="0"/>
</linearGradient>
<linearGradient id="paint17_linear_1_827" x1="121.141" y1="68.1152" x2="110.923" y2="14.6195" gradientUnits="userSpaceOnUse">
<stop stop-color="white"/>
<stop offset="1" stop-color="white" stop-opacity="0"/>
</linearGradient>
<radialGradient id="paint18_radial_1_827" cx="0" cy="0" r="1" gradientUnits="userSpaceOnUse" gradientTransform="translate(40.9924 105.877) rotate(-19.6638) scale(148.523)">
<stop offset="0.249306" stop-color="white"/>
<stop offset="0.48315" stop-color="#FF8FED" stop-opacity="0.5"/>
<stop offset="0.627037" stop-color="#220C7A" stop-opacity="0"/>
</radialGradient>
</defs>
</svg>
