<svg width="295" height="422" viewBox="0 0 295 422" fill="none" xmlns="http://www.w3.org/2000/svg">
<mask id="mask0_1_786" style="mask-type:alpha" maskUnits="userSpaceOnUse" x="39" y="187" width="205" height="235">
<rect x="39.2756" y="187.159" width="204.609" height="234.722" fill="url(#paint0_linear_1_786)"/>
</mask>
<g mask="url(#mask0_1_786)">
<g opacity="0.8">
<path d="M147.039 201.12L197.593 228.526L221.761 268.64L185.438 400.348L147.039 378.138L147.039 201.12Z" fill="url(#paint1_linear_1_786)"/>
<path opacity="0.8" d="M147.038 201.12L147.039 292.083L191.688 265.785L197.593 228.527L147.038 201.12Z" fill="url(#paint2_linear_1_786)" fill-opacity="0.7"/>
<g opacity="0.8">
<path d="M147.038 201.121L96.4747 228.533L72.3153 268.64L108.639 400.348L147.038 378.139L147.038 201.121Z" fill="url(#paint3_linear_1_786)" fill-opacity="0.7"/>
<path d="M147.038 201.121L96.4747 228.533L72.3153 268.64L108.639 400.348L147.038 378.139L147.038 201.121Z" fill="url(#paint4_linear_1_786)" fill-opacity="0.5"/>
</g>
<path d="M185.44 400.348L147.039 378.139L147.039 422.557L185.44 400.348Z" fill="url(#paint5_linear_1_786)"/>
<path d="M147.04 271.061L121.613 256.356L147.04 241.651L172.466 256.356L147.04 271.061Z" fill="url(#paint6_linear_1_786)" fill-opacity="0.5"/>
<path d="M108.638 400.348L147.039 422.557L147.039 378.139L108.638 400.348Z" fill="url(#paint7_linear_1_786)" fill-opacity="0.8"/>
<path d="M147.04 413.197L126.443 401.285L147.04 389.373L167.636 401.285L147.04 413.197Z" fill="url(#paint8_linear_1_786)" fill-opacity="0.6"/>
<path opacity="0.8" d="M147.038 201.12L147.038 292.083L102.388 265.785L96.4835 228.527L147.038 201.12Z" fill="url(#paint9_linear_1_786)"/>
<path d="M72.3165 268.64L96.4843 228.527L102.389 265.784L72.3165 268.64Z" fill="url(#paint10_linear_1_786)" fill-opacity="0.7"/>
<path d="M147.04 305.715L105.658 281.783L147.04 257.85L188.422 281.783L147.04 305.715Z" fill="url(#paint11_linear_1_786)" fill-opacity="0.7"/>
<path d="M147.04 305.715L105.658 281.783L147.04 257.85L188.422 281.783L147.04 305.715Z" fill="url(#paint12_linear_1_786)" fill-opacity="0.7"/>
<path d="M147.04 257.851L105.659 281.782L121.614 256.355L147.04 241.651L147.04 257.851Z" fill="url(#paint13_linear_1_786)" fill-opacity="0.9"/>
<path d="M147.04 257.844L188.421 281.776L167.635 401.284L147.04 389.372L147.04 257.844Z" fill="url(#paint14_linear_1_786)" fill-opacity="0.6"/>
<path d="M147.039 257.844L105.657 281.776L126.443 401.284L147.039 389.372L147.039 257.844Z" fill="url(#paint15_linear_1_786)" fill-opacity="0.9"/>
<path d="M147.04 257.851L188.421 281.782L172.466 256.355L147.04 241.651L147.04 257.851Z" fill="url(#paint16_linear_1_786)" fill-opacity="0.9"/>
<path d="M221.761 268.64L197.593 228.527L191.688 265.784L221.761 268.64Z" fill="url(#paint17_linear_1_786)" fill-opacity="0.7"/>
</g>
</g>
<g filter="url(#filter0_f_1_786)">
<ellipse cx="147.038" cy="223.589" rx="141" ry="61.5772" fill="url(#paint18_radial_1_786)" fill-opacity="0.6"/>
</g>
<g filter="url(#filter1_f_1_786)">
<ellipse cx="147.038" cy="223.589" rx="100.154" ry="43.7389" fill="url(#paint19_radial_1_786)" fill-opacity="0.6"/>
</g>
<path d="M147.037 172.866L220.425 215.309L147.037 257.752L73.6482 215.309L147.037 172.866Z" fill="url(#paint20_linear_1_786)" fill-opacity="0.5"/>
<path d="M147.037 229.533L96.4821 202.126L72.3141 162.013L108.638 30.3049L147.037 52.5142L147.037 229.533Z" fill="url(#paint21_linear_1_786)"/>
<path opacity="0.8" d="M147.037 229.533L147.037 138.57L102.387 164.868L96.4827 202.126L147.037 229.533Z" fill="url(#paint22_linear_1_786)" fill-opacity="0.7"/>
<g opacity="0.8">
<path d="M147.038 229.532L197.601 202.12L221.76 162.013L185.437 30.3049L147.037 52.5142L147.038 229.532Z" fill="url(#paint23_linear_1_786)" fill-opacity="0.7"/>
<path d="M147.038 229.532L197.601 202.12L221.76 162.013L185.437 30.3049L147.037 52.5142L147.038 229.532Z" fill="url(#paint24_linear_1_786)" fill-opacity="0.5"/>
</g>
<path d="M108.636 30.3049L147.037 52.5136L147.037 8.09615L108.636 30.3049Z" fill="url(#paint25_linear_1_786)"/>
<path d="M147.037 159.591L172.463 174.296L147.037 189.001L121.61 174.296L147.037 159.591Z" fill="url(#paint26_linear_1_786)" fill-opacity="0.5"/>
<path d="M185.438 30.3049L147.037 8.09615L147.037 52.5136L185.438 30.3049Z" fill="url(#paint27_linear_1_786)" fill-opacity="0.8"/>
<path d="M147.037 17.4564L167.633 29.3683L147.037 41.2801L126.44 29.3683L147.037 17.4564Z" fill="url(#paint28_linear_1_786)" fill-opacity="0.6"/>
<path opacity="0.8" d="M147.038 229.532L147.039 138.57L191.688 164.868L197.593 202.125L147.038 229.532Z" fill="url(#paint29_linear_1_786)"/>
<path d="M221.76 162.012L197.592 202.126L191.688 164.868L221.76 162.012Z" fill="url(#paint30_linear_1_786)" fill-opacity="0.7"/>
<path d="M147.037 124.937L188.418 148.87L147.037 172.803L105.655 148.87L147.037 124.937Z" fill="url(#paint31_linear_1_786)" fill-opacity="0.7"/>
<path d="M147.037 124.937L188.418 148.87L147.037 172.803L105.655 148.87L147.037 124.937Z" fill="url(#paint32_linear_1_786)" fill-opacity="0.7"/>
<path d="M147.036 172.802L188.417 148.87L172.462 174.297L147.036 189.001V172.802Z" fill="url(#paint33_linear_1_786)" fill-opacity="0.9"/>
<path d="M146.469 168.878L106.222 145.601L126.438 29.3684L146.47 40.9541L146.469 168.878Z" fill="url(#paint34_linear_1_786)" fill-opacity="0.6"/>
<path d="M147.037 172.808L188.418 148.876L167.633 29.3684L147.037 41.2805L147.037 172.808Z" fill="url(#paint35_linear_1_786)" fill-opacity="0.9"/>
<path d="M147.036 172.802L105.655 148.87L121.61 174.297L147.036 189.001V172.802Z" fill="url(#paint36_linear_1_786)" fill-opacity="0.9"/>
<path d="M72.3146 162.012L96.4824 202.126L102.387 164.868L72.3146 162.012Z" fill="url(#paint37_linear_1_786)" fill-opacity="0.7"/>
<defs>
<filter id="filter0_f_1_786" x="6.19888e-06" y="155.974" width="294.076" height="135.23" filterUnits="userSpaceOnUse" color-interpolation-filters="sRGB">
<feFlood flood-opacity="0" result="BackgroundImageFix"/>
<feBlend mode="normal" in="SourceGraphic" in2="BackgroundImageFix" result="shape"/>
<feGaussianBlur stdDeviation="3.01893" result="effect1_foregroundBlur_1_786"/>
</filter>
<filter id="filter1_f_1_786" x="40.8469" y="173.812" width="212.383" height="99.5536" filterUnits="userSpaceOnUse" color-interpolation-filters="sRGB">
<feFlood flood-opacity="0" result="BackgroundImageFix"/>
<feBlend mode="normal" in="SourceGraphic" in2="BackgroundImageFix" result="shape"/>
<feGaussianBlur stdDeviation="3.01893" result="effect1_foregroundBlur_1_786"/>
</filter>
<linearGradient id="paint0_linear_1_786" x1="141.58" y1="94.4434" x2="141.58" y2="348.158" gradientUnits="userSpaceOnUse">
<stop/>
<stop offset="1" stop-opacity="0"/>
</linearGradient>
<linearGradient id="paint1_linear_1_786" x1="-0.0407136" y1="414.287" x2="-10.8181" y2="265.354" gradientUnits="userSpaceOnUse">
<stop stop-color="#3D79ED"/>
<stop offset="0.265625" stop-color="#3458C1" stop-opacity="0.7"/>
<stop offset="0.618879" stop-color="#3753B8" stop-opacity="0.7"/>
<stop offset="0.895833" stop-color="#5BB0FF" stop-opacity="0.9"/>
<stop offset="1" stop-color="#5BB0FF" stop-opacity="0.6"/>
</linearGradient>
<linearGradient id="paint2_linear_1_786" x1="153.017" y1="213.124" x2="179.025" y2="270.803" gradientUnits="userSpaceOnUse">
<stop offset="0.046875" stop-color="white"/>
<stop offset="0.427083" stop-color="#DFF4FF"/>
<stop offset="0.994792" stop-color="#0E42C8"/>
</linearGradient>
<linearGradient id="paint3_linear_1_786" x1="72.3155" y1="195.632" x2="158.868" y2="261.669" gradientUnits="userSpaceOnUse">
<stop offset="0.280479" stop-color="white"/>
<stop offset="0.469567" stop-color="#FF79DA"/>
<stop offset="0.692708" stop-color="#3D3AE3" stop-opacity="0.9"/>
</linearGradient>
<linearGradient id="paint4_linear_1_786" x1="72.3155" y1="204.864" x2="157.876" y2="286.981" gradientUnits="userSpaceOnUse">
<stop offset="0.161458" stop-color="white"/>
<stop offset="1" stop-color="white" stop-opacity="0"/>
</linearGradient>
<linearGradient id="paint5_linear_1_786" x1="146.944" y1="421.818" x2="167.109" y2="388.777" gradientUnits="userSpaceOnUse">
<stop stop-color="#1AD6FF"/>
<stop offset="1" stop-color="#496BE4" stop-opacity="0.6"/>
<stop offset="1" stop-color="#1F3CA3"/>
</linearGradient>
<linearGradient id="paint6_linear_1_786" x1="132.446" y1="248.061" x2="167.436" y2="256.356" gradientUnits="userSpaceOnUse">
<stop stop-color="#81FF6C"/>
<stop offset="1" stop-color="#31F3FF"/>
</linearGradient>
<linearGradient id="paint7_linear_1_786" x1="108.637" y1="402.625" x2="145.243" y2="406.027" gradientUnits="userSpaceOnUse">
<stop stop-color="#FF79C9"/>
<stop offset="1" stop-color="#1F3CA3"/>
</linearGradient>
<linearGradient id="paint8_linear_1_786" x1="130.424" y1="398.495" x2="154.719" y2="401.285" gradientUnits="userSpaceOnUse">
<stop stop-color="#52FF6E"/>
<stop offset="1" stop-color="#31FFFF"/>
</linearGradient>
<linearGradient id="paint9_linear_1_786" x1="106.371" y1="215.554" x2="125.281" y2="282.667" gradientUnits="userSpaceOnUse">
<stop offset="0.103809" stop-color="white"/>
<stop offset="0.436548" stop-color="#FFAACE" stop-opacity="0.8"/>
<stop offset="0.71875" stop-color="#6F97FF" stop-opacity="0.8"/>
</linearGradient>
<linearGradient id="paint10_linear_1_786" x1="87.3527" y1="238.877" x2="102.389" y2="268.64" gradientUnits="userSpaceOnUse">
<stop stop-color="white"/>
<stop offset="0.591466" stop-color="#FF94D4"/>
<stop offset="1" stop-color="#C994FF"/>
</linearGradient>
<linearGradient id="paint11_linear_1_786" x1="123.288" y1="268.282" x2="180.235" y2="281.783" gradientUnits="userSpaceOnUse">
<stop stop-color="#81FF6C"/>
<stop offset="1" stop-color="#31F3FF"/>
</linearGradient>
<linearGradient id="paint12_linear_1_786" x1="147.04" y1="259.568" x2="147.04" y2="306.808" gradientUnits="userSpaceOnUse">
<stop stop-color="white"/>
<stop offset="1" stop-color="white" stop-opacity="0"/>
</linearGradient>
<linearGradient id="paint13_linear_1_786" x1="103.64" y1="281.782" x2="145.992" y2="243.542" gradientUnits="userSpaceOnUse">
<stop offset="0.149863" stop-color="white"/>
<stop offset="0.300261" stop-color="#8CFF31"/>
<stop offset="0.449118" stop-color="#45C3EB"/>
<stop offset="1" stop-color="#72E6FF"/>
</linearGradient>
<linearGradient id="paint14_linear_1_786" x1="165.516" y1="257.844" x2="231.157" y2="303.84" gradientUnits="userSpaceOnUse">
<stop stop-color="#6CFFED"/>
<stop offset="1" stop-color="#197F9F"/>
</linearGradient>
<linearGradient id="paint15_linear_1_786" x1="2.42024" y1="311.622" x2="70.9847" y2="383.413" gradientUnits="userSpaceOnUse">
<stop offset="0.464598" stop-color="white"/>
<stop offset="0.790313" stop-color="#6DF390"/>
<stop offset="1" stop-color="#21CAFF" stop-opacity="0.9"/>
</linearGradient>
<linearGradient id="paint16_linear_1_786" x1="188.421" y1="281.782" x2="148.086" y2="243.597" gradientUnits="userSpaceOnUse">
<stop offset="0.125" stop-color="white"/>
<stop offset="0.297772" stop-color="#8CFF31"/>
<stop offset="0.447917" stop-color="#5BF5FF"/>
</linearGradient>
<linearGradient id="paint17_linear_1_786" x1="196.02" y1="225.271" x2="201.851" y2="268.64" gradientUnits="userSpaceOnUse">
<stop stop-color="#DFF4FF"/>
<stop offset="0.994792" stop-color="#0E42C8"/>
</linearGradient>
<radialGradient id="paint18_radial_1_786" cx="0" cy="0" r="1" gradientUnits="userSpaceOnUse" gradientTransform="translate(147.038 223.589) rotate(90) scale(61.5772 141)">
<stop stop-color="#739AFF"/>
<stop offset="1" stop-color="#6978FF" stop-opacity="0"/>
</radialGradient>
<radialGradient id="paint19_radial_1_786" cx="0" cy="0" r="1" gradientUnits="userSpaceOnUse" gradientTransform="translate(147.038 223.589) rotate(90) scale(43.7389 100.154)">
<stop stop-color="#739AFF"/>
<stop offset="1" stop-color="#6978FF" stop-opacity="0"/>
</radialGradient>
<linearGradient id="paint20_linear_1_786" x1="183.731" y1="178.615" x2="110.343" y2="252.003" gradientUnits="userSpaceOnUse">
<stop stop-color="#6C7BFF"/>
<stop offset="1" stop-color="#31B5FF"/>
</linearGradient>
<linearGradient id="paint21_linear_1_786" x1="294.116" y1="16.3659" x2="304.894" y2="165.298" gradientUnits="userSpaceOnUse">
<stop stop-color="#3D79ED"/>
<stop offset="0.265625" stop-color="#3458C1" stop-opacity="0.7"/>
<stop offset="0.618879" stop-color="#3753B8" stop-opacity="0.7"/>
<stop offset="0.895833" stop-color="#5BB0FF" stop-opacity="0.9"/>
<stop offset="1" stop-color="#5BB0FF" stop-opacity="0.6"/>
</linearGradient>
<linearGradient id="paint22_linear_1_786" x1="141.058" y1="217.528" x2="115.051" y2="159.85" gradientUnits="userSpaceOnUse">
<stop offset="0.046875" stop-color="white"/>
<stop offset="0.427083" stop-color="#DFF4FF"/>
<stop offset="0.994792" stop-color="#0E42C8"/>
</linearGradient>
<linearGradient id="paint23_linear_1_786" x1="221.76" y1="235.021" x2="135.208" y2="168.984" gradientUnits="userSpaceOnUse">
<stop offset="0.280479" stop-color="white"/>
<stop offset="0.469567" stop-color="#FF79DA"/>
<stop offset="0.692708" stop-color="#3D3AE3" stop-opacity="0.9"/>
</linearGradient>
<linearGradient id="paint24_linear_1_786" x1="221.76" y1="225.789" x2="136.199" y2="143.672" gradientUnits="userSpaceOnUse">
<stop offset="0.161458" stop-color="white"/>
<stop offset="1" stop-color="white" stop-opacity="0"/>
</linearGradient>
<linearGradient id="paint25_linear_1_786" x1="147.132" y1="8.83447" x2="126.967" y2="41.8756" gradientUnits="userSpaceOnUse">
<stop stop-color="#1AD6FF"/>
<stop offset="1" stop-color="#496BE4" stop-opacity="0.6"/>
<stop offset="1" stop-color="#1F3CA3"/>
</linearGradient>
<linearGradient id="paint26_linear_1_786" x1="161.631" y1="182.592" x2="126.64" y2="174.296" gradientUnits="userSpaceOnUse">
<stop stop-color="#81FF6C"/>
<stop offset="1" stop-color="#31F3FF"/>
</linearGradient>
<linearGradient id="paint27_linear_1_786" x1="185.438" y1="28.0275" x2="148.832" y2="24.6262" gradientUnits="userSpaceOnUse">
<stop stop-color="#FF79C9"/>
<stop offset="1" stop-color="#1F3CA3"/>
</linearGradient>
<linearGradient id="paint28_linear_1_786" x1="163.653" y1="32.1579" x2="139.358" y2="29.3682" gradientUnits="userSpaceOnUse">
<stop stop-color="#52FF6E"/>
<stop offset="1" stop-color="#31FFFF"/>
</linearGradient>
<linearGradient id="paint29_linear_1_786" x1="187.705" y1="215.099" x2="168.795" y2="147.985" gradientUnits="userSpaceOnUse">
<stop offset="0.103809" stop-color="white"/>
<stop offset="0.436548" stop-color="#FFAACE" stop-opacity="0.8"/>
<stop offset="0.71875" stop-color="#6F97FF" stop-opacity="0.8"/>
</linearGradient>
<linearGradient id="paint30_linear_1_786" x1="206.724" y1="191.776" x2="191.688" y2="162.012" gradientUnits="userSpaceOnUse">
<stop stop-color="white"/>
<stop offset="0.591466" stop-color="#FF94D4"/>
<stop offset="1" stop-color="#C994FF"/>
</linearGradient>
<linearGradient id="paint31_linear_1_786" x1="170.788" y1="162.371" x2="113.842" y2="148.87" gradientUnits="userSpaceOnUse">
<stop stop-color="#81FF6C"/>
<stop offset="1" stop-color="#31F3FF"/>
</linearGradient>
<linearGradient id="paint32_linear_1_786" x1="147.037" y1="171.084" x2="147.037" y2="123.845" gradientUnits="userSpaceOnUse">
<stop stop-color="white"/>
<stop offset="1" stop-color="white" stop-opacity="0"/>
</linearGradient>
<linearGradient id="paint33_linear_1_786" x1="190.436" y1="148.87" x2="148.084" y2="187.11" gradientUnits="userSpaceOnUse">
<stop offset="0.149863" stop-color="white"/>
<stop offset="0.300261" stop-color="#8CFF31"/>
<stop offset="0.449118" stop-color="#45C3EB"/>
<stop offset="1" stop-color="#72E6FF"/>
</linearGradient>
<linearGradient id="paint34_linear_1_786" x1="128.5" y1="168.878" x2="64.6576" y2="124.142" gradientUnits="userSpaceOnUse">
<stop stop-color="#6CFFED"/>
<stop offset="1" stop-color="#197F9F"/>
</linearGradient>
<linearGradient id="paint35_linear_1_786" x1="291.655" y1="119.031" x2="223.091" y2="47.2397" gradientUnits="userSpaceOnUse">
<stop offset="0.464598" stop-color="white"/>
<stop offset="0.790313" stop-color="#6DF390"/>
<stop offset="1" stop-color="#21CAFF" stop-opacity="0.9"/>
</linearGradient>
<linearGradient id="paint36_linear_1_786" x1="105.655" y1="148.87" x2="145.989" y2="187.055" gradientUnits="userSpaceOnUse">
<stop offset="0.125" stop-color="white"/>
<stop offset="0.297772" stop-color="#8CFF31"/>
<stop offset="0.447917" stop-color="#5BF5FF"/>
</linearGradient>
<linearGradient id="paint37_linear_1_786" x1="98.0558" y1="205.381" x2="92.225" y2="162.012" gradientUnits="userSpaceOnUse">
<stop stop-color="#DFF4FF"/>
<stop offset="0.994792" stop-color="#0E42C8"/>
</linearGradient>
</defs>
</svg>
